<?xml version="1.0" standalone="no"?><!DOCTYPE svg PUBLIC "-//W3C//DTD SVG 1.1//EN" "http://www.w3.org/Graphics/SVG/1.1/DTD/svg11.dtd"><svg t="1773582881325" class="icon" viewBox="0 0 1024 1024" version="1.1" xmlns="http://www.w3.org/2000/svg" p-id="8870" xmlns:xlink="http://www.w3.org/1999/xlink" width="200" height="200"><path d="M772.181333 141.482667a37.12 37.12 0 0 0-5.290666 0.341333c-13.909333 0-26.069333 6.954667-34.730667 17.408l-219.306667 260.906667a164.821333 164.821333 0 0 0-26.026666 45.226666l-41.813334 142.677334a29.738667 29.738667 0 0 0 8.746667 34.773333 33.237333 33.237333 0 0 0 20.864 6.954667c5.205333 0 10.453333-1.706667 13.994667-5.205334l135.594666-64.384h1.706667c15.701333-8.661333 29.696-19.114667 40.106667-33.024l217.386666-257.450666c19.2-20.906667 15.744-53.973333-5.205333-71.338667L803.413333 154.026667c-9.045333-7.552-19.498667-12.501333-31.232-12.501334m-0.298666 69.845334l54.485333 46.805333-209.28 247.722667-1.194667 1.408-1.066666 1.493333a52.224 52.224 0 0 1-12.416 10.965333l-5.546667 2.645334-69.717333 33.066666 20.138666-68.906666c4.394667-10.368 9.386667-19.114667 14.592-25.173334l210.005334-250.026666" fill="#999999" p-id="8871"></path><path d="M442.624 174.634667a32 32 0 0 1 4.309333 63.701333l-4.309333 0.298667H296.192a136.149333 136.149333 0 0 0-135.978667 128.426666l-0.213333 7.68v339.626667a136.106667 136.106667 0 0 0 128.426667 135.936l7.765333 0.213333H635.733333a136.106667 136.106667 0 0 0 135.850667-128.426666l0.213333-7.722667v-95.573333a32 32 0 0 1 63.701334-4.309334l0.298666 4.352v95.530667a200.106667 200.106667 0 0 1-190.933333 199.936l-9.130667 0.213333H296.106667a200.106667 200.106667 0 0 1-199.936-190.976l-0.213334-9.173333v-339.626667a200.149333 200.149333 0 0 1 191.018667-199.893333l9.173333-0.213333h146.432zM678.954667 224.085333a32 32 0 0 1 41.088-7.381333l3.882666 2.688 100.053334 81.152a32 32 0 0 1-36.394667 52.394667l-3.882667-2.688-100.053333-81.152a32 32 0 0 1-4.693333-45.013334z" fill="#999999" p-id="8872"></path></svg>