<?xml version="1.0" standalone="no"?><!DOCTYPE svg PUBLIC "-//W3C//DTD SVG 1.1//EN" "http://www.w3.org/Graphics/SVG/1.1/DTD/svg11.dtd"><svg t="1775616937024" class="icon" viewBox="0 0 1024 1024" version="1.1" xmlns="http://www.w3.org/2000/svg" p-id="6942" xmlns:xlink="http://www.w3.org/1999/xlink" width="200" height="200"><path d="M512 53.333333a455.808 455.808 0 0 1 178.645333 36.266667 32 32 0 1 1-25.045333 58.752A392.149333 392.149333 0 0 0 512 117.333333a32 32 0 0 1-32-32 32 32 0 0 1 32-32z m-119.466667 17.066667a32 32 0 0 1 8.917334 62.72 391.509333 391.509333 0 0 0-138.794667 72.917333 32 32 0 1 1-40.448-49.578666 455.168 455.168 0 0 1 161.322667-84.864 32 32 0 0 1 9.002666-1.28z m394.325334 83.2a31.872 31.872 0 0 1 20.608 7.552 457.685333 457.685333 0 0 1 113.365333 142.677333 32 32 0 1 1-57.002667 29.098667 394.026667 394.026667 0 0 0-97.578666-122.837333 32 32 0 0 1 20.608-56.490667zM156.757333 243.669333A32 32 0 0 1 183.466667 293.418667a390.442667 390.442667 0 0 0-59.306667 145.152A32 32 0 0 1 61.269333 426.666667a454.101333 454.101333 0 0 1 68.821334-168.746667 31.957333 31.957333 0 0 1 26.666666-14.250667z m775.808 163.712a32 32 0 0 1 31.488 26.581334 462.805333 462.805333 0 0 1-5.248 182.144 32 32 0 1 1-62.336-14.464 398.848 398.848 0 0 0 4.522667-156.842667 32.042667 32.042667 0 0 1 31.573333-37.418667zM88.064 528.085333a32 32 0 0 1 31.744 28.416 390.357333 390.357333 0 0 0 48.213333 149.333334 32 32 0 0 1-55.722666 31.445333 454.016 454.016 0 0 1-56.106667-173.610667 32 32 0 0 1 28.245333-35.370666 32.341333 32.341333 0 0 1 3.626667-0.213334zM880.469333 695.466667a32 32 0 0 1 27.562667 48.170666 458.112 458.112 0 0 1-121.386667 135.893334 32 32 0 1 1-38.4-51.2 394.453333 394.453333 0 0 0 104.533334-116.992 32 32 0 0 1 27.690666-15.872z m-661.76 94.378666a31.872 31.872 0 0 1 22.016 8.746667 392.533333 392.533333 0 0 0 132.992 83.114667 32 32 0 0 1-22.442666 59.733333 456.277333 456.277333 0 0 1-154.581334-96.341333 32 32 0 0 1 22.016-55.253334z m436.394667 92.202667a32 32 0 0 1 10.709333 62.165333 457.472 457.472 0 0 1-153.813333 26.453334c-8.832 0-17.792-0.256-26.581333-0.768a32.042667 32.042667 0 0 1 3.669333-64c7.594667 0.426667 15.317333 0.64 22.912 0.64a393.685333 393.685333 0 0 0 132.266667-22.741334 31.957333 31.957333 0 0 1 10.837333-1.749333z" fill="#333333" p-id="6943"></path></svg>