<?xml version="1.0" standalone="no"?><!DOCTYPE svg PUBLIC "-//W3C//DTD SVG 1.1//EN" "http://www.w3.org/Graphics/SVG/1.1/DTD/svg11.dtd"><svg t="1774434497317" class="icon" viewBox="0 0 1463 1024" version="1.1" xmlns="http://www.w3.org/2000/svg" p-id="10628" xmlns:xlink="http://www.w3.org/1999/xlink" width="285.7421875" height="200"><path d="M428.324571 353.572571 695.003429 92.306286c20.772571-20.187429 54.272-20.187429 75.044571 0l266.678857 261.266286c20.772571 20.333714 20.772571 53.248 0 73.435429-20.626286 20.333714-54.272 20.333714-75.044571 0L732.452571 202.605714 503.369143 427.008c-20.772571 20.333714-54.272 20.333714-75.044571 0C407.698286 406.820571 407.698286 373.906286 428.324571 353.572571z" fill="#898989" p-id="10629"></path><path d="M1036.580571 669.110857 770.048 930.377143c-20.772571 20.187429-54.272 20.187429-75.044571 0L428.324571 669.110857c-20.772571-20.333714-20.772571-53.248 0-73.435429 20.626286-20.333714 54.272-20.333714 75.044571 0l229.083429 224.548571 229.083429-224.548571c20.772571-20.333714 54.272-20.333714 75.044571 0C1057.353143 616.009143 1057.353143 648.777143 1036.580571 669.110857z" fill="#898989" p-id="10630"></path></svg>